<?xml version="1.0" standalone="no"?>
<!DOCTYPE svg PUBLIC "-//W3C//DTD SVG 20010904//EN"
 "http://www.w3.org/TR/2001/REC-SVG-20010904/DTD/svg10.dtd">
<svg version="1.0" xmlns="http://www.w3.org/2000/svg"
 width="512.000000pt" height="512.000000pt" viewBox="0 0 512.000000 512.000000"
 preserveAspectRatio="xMidYMid meet">
<metadata>
Created by potrace 1.14, written by Peter Selinger 2001-2017
</metadata>
<g transform="translate(0.000000,512.000000) scale(0.100000,-0.100000)"
fill="#000000" stroke="none">
<path d="M1805 4730 c-269 -12 -546 -30 -620 -40 -38 -5 -97 -12 -130 -15
-294 -28 -507 -72 -599 -124 -65 -38 -121 -97 -149 -160 -17 -35 -22 -65 -22
-126 1 -105 27 -167 101 -234 91 -84 205 -105 334 -63 98 31 256 51 580 72 85
6 209 14 275 19 104 9 363 15 492 12 l41 -1 -15 -47 c-21 -69 -13 -165 21
-230 58 -115 159 -178 286 -178 71 0 83 4 210 62 120 56 135 61 141 45 15 -39
21 -399 10 -527 -19 -210 -14 -195 -71 -195 -130 0 -262 -102 -301 -232 -14
-47 -13 -149 1 -194 31 -97 99 -169 195 -209 l52 -21 -39 -129 c-69 -231 -94
-276 -263 -460 -20 -22 -54 -62 -75 -90 -21 -27 -60 -74 -87 -104 -46 -51 -52
-55 -110 -61 -114 -14 -208 -81 -259 -186 -14 -29 -33 -55 -42 -58 -10 -3 -64
-14 -122 -26 -58 -12 -129 -28 -159 -36 -65 -19 -83 -19 -189 -5 -56 7 -101
20 -135 38 -69 37 -219 182 -263 254 -67 111 -147 160 -269 167 -65 3 -91 0
-137 -18 -72 -27 -141 -92 -173 -163 -74 -166 -18 -314 217 -566 70 -75 140
-144 155 -154 15 -9 66 -42 112 -72 89 -58 236 -113 361 -134 36 -6 94 -17
130 -23 99 -18 168 -12 318 25 75 19 169 40 207 47 167 29 221 44 303 85 l86
43 72 -39 c134 -74 352 -140 579 -175 100 -16 171 -19 425 -17 168 0 334 6
370 12 36 6 117 16 180 21 298 26 545 120 698 264 70 65 167 211 186 278 63
224 73 343 36 460 -11 34 -20 79 -20 98 0 113 -103 340 -211 465 -33 39 -81
95 -107 124 -94 109 -179 194 -252 253 -41 34 -76 63 -78 67 -1 3 20 14 47 24
61 21 179 99 251 163 30 28 91 78 135 111 204 155 275 265 372 577 59 191 56
386 -10 602 -45 146 -62 181 -145 304 -101 151 -165 206 -267 231 -27 7 -97
31 -155 54 -180 72 -287 93 -500 98 -267 7 -480 -21 -610 -79 -61 -27 -62 -27
-108 -11 -26 9 -81 26 -122 36 -41 11 -101 27 -133 35 -174 47 -244 55 -562
59 -170 2 -382 1 -470 -3z m2145 -694 c63 -15 187 -59 229 -80 37 -19 53 -46
79 -131 38 -124 38 -149 -2 -263 -19 -55 -42 -114 -50 -130 -9 -17 -64 -66
-123 -110 -60 -43 -127 -95 -150 -114 -26 -22 -74 -46 -130 -65 -81 -27 -309
-86 -377 -96 l-28 -5 7 117 c3 64 7 159 8 211 1 124 -22 503 -34 559 -5 24 -8
45 -7 46 22 19 116 55 145 56 21 0 56 4 78 8 65 14 294 12 355 -3z m-573
-1885 c204 -89 340 -161 378 -197 68 -65 276 -297 303 -337 16 -25 29 -66 39
-125 8 -48 17 -99 20 -113 9 -48 -15 -107 -55 -133 -52 -34 -190 -66 -283 -66
-42 0 -113 -7 -156 -15 -110 -21 -517 -21 -661 1 -134 20 -217 38 -216 48 1 4
33 45 72 90 94 110 202 244 230 283 35 49 129 261 150 339 54 192 77 264 84
264 4 0 47 -17 95 -39z"/>
</g>
</svg>
